<mxfile host="65bd71144e">
    <diagram id="05XbuPft-LkbHlFeouxJ" name="Page-1">
        <mxGraphModel dx="2825" dy="921" grid="1" gridSize="10" guides="1" tooltips="1" connect="1" arrows="1" fold="1" page="1" pageScale="1" pageWidth="1169" pageHeight="1654" math="0" shadow="0">
            <root>
                <mxCell id="0"/>
                <mxCell id="1" parent="0"/>
                <mxCell id="5" value="" style="edgeStyle=none;html=1;" parent="1" source="3" target="4" edge="1">
                    <mxGeometry relative="1" as="geometry"/>
                </mxCell>
                <mxCell id="3" value="&lt;font face=&quot;Times New Roman&quot;&gt;input&lt;/font&gt;&lt;div&gt;&lt;font face=&quot;Times New Roman&quot;&gt;(B, L, D) = (2, 64, 16)&lt;/font&gt;&lt;/div&gt;" style="rounded=0;whiteSpace=wrap;html=1;" parent="1" vertex="1">
                    <mxGeometry x="340" y="60" width="120" height="50" as="geometry"/>
                </mxCell>
                <mxCell id="9" value="" style="edgeStyle=none;html=1;" parent="1" source="4" target="8" edge="1">
                    <mxGeometry relative="1" as="geometry"/>
                </mxCell>
                <mxCell id="4" value="&lt;div&gt;&lt;font face=&quot;Times New Roman&quot;&gt;&amp;nbsp;(16, 128)&lt;/font&gt;&lt;/div&gt;&lt;div&gt;&lt;span style=&quot;color: rgb(63, 63, 63); font-family: &amp;quot;Times New Roman&amp;quot;;&quot;&gt;(B, L, D) -&amp;gt;&amp;nbsp;&lt;/span&gt;&lt;font face=&quot;Times New Roman&quot;&gt;&lt;/font&gt;&lt;span style=&quot;color: rgb(63, 63, 63); font-family: &amp;quot;Times New Roman&amp;quot;; background-color: transparent;&quot;&gt;(D, (B, L))&lt;/span&gt;&lt;/div&gt;" style="rounded=0;whiteSpace=wrap;html=1;" parent="1" vertex="1">
                    <mxGeometry x="340" y="160" width="120" height="50" as="geometry"/>
                </mxCell>
                <mxCell id="6" value="&lt;font face=&quot;Times New Roman&quot;&gt;reshape&lt;/font&gt;" style="text;html=1;align=center;verticalAlign=middle;whiteSpace=wrap;rounded=0;fillColor=#ffff88;strokeColor=#36393d;" parent="1" vertex="1">
                    <mxGeometry x="410" y="120" width="60" height="30" as="geometry"/>
                </mxCell>
                <mxCell id="12" style="edgeStyle=none;html=1;exitX=0.5;exitY=1;exitDx=0;exitDy=0;endArrow=none;endFill=0;" parent="1" source="7" edge="1">
                    <mxGeometry relative="1" as="geometry">
                        <mxPoint x="400" y="240" as="targetPoint"/>
                        <Array as="points">
                            <mxPoint x="220" y="240"/>
                        </Array>
                    </mxGeometry>
                </mxCell>
                <mxCell id="7" value="&lt;font face=&quot;Times New Roman&quot;&gt;in_proj_weight&lt;/font&gt;&lt;div&gt;&lt;font face=&quot;Times New Roman&quot;&gt;(2*D&lt;sub&gt;inner&amp;nbsp;&lt;/sub&gt;, D) = (64, 16)&lt;/font&gt;&lt;/div&gt;" style="rounded=0;whiteSpace=wrap;html=1;" parent="1" vertex="1">
                    <mxGeometry x="160" y="60" width="120" height="50" as="geometry"/>
                </mxCell>
                <mxCell id="14" value="" style="edgeStyle=none;html=1;" parent="1" source="8" target="13" edge="1">
                    <mxGeometry relative="1" as="geometry"/>
                </mxCell>
                <mxCell id="8" value="&lt;div&gt;&lt;font face=&quot;Times New Roman&quot;&gt;&amp;nbsp;(64, 128)&lt;/font&gt;&lt;/div&gt;&lt;div&gt;&lt;span style=&quot;color: rgb(63, 63, 63); font-family: &amp;quot;Times New Roman&amp;quot;;&quot;&gt;(&lt;span style=&quot;color: rgb(63, 63, 63);&quot;&gt;2*D&lt;/span&gt;&lt;sub style=&quot;color: rgb(63, 63, 63); scrollbar-color: rgb(226, 226, 226) rgb(251, 251, 251);&quot;&gt;inner&amp;nbsp;&lt;/sub&gt;&lt;span style=&quot;color: rgb(63, 63, 63);&quot;&gt;,&amp;nbsp;(B, L)&lt;/span&gt;)&amp;nbsp;&lt;/span&gt;&lt;/div&gt;" style="rounded=0;whiteSpace=wrap;html=1;" parent="1" vertex="1">
                    <mxGeometry x="340" y="270" width="120" height="50" as="geometry"/>
                </mxCell>
                <mxCell id="25" style="edgeStyle=none;html=1;exitX=0.5;exitY=1;exitDx=0;exitDy=0;entryX=0.5;entryY=0;entryDx=0;entryDy=0;" parent="1" source="13" target="20" edge="1">
                    <mxGeometry relative="1" as="geometry">
                        <Array as="points">
                            <mxPoint x="400" y="459"/>
                            <mxPoint x="260" y="459"/>
                        </Array>
                    </mxGeometry>
                </mxCell>
                <mxCell id="26" style="edgeStyle=none;html=1;exitX=0.5;exitY=1;exitDx=0;exitDy=0;entryX=0.5;entryY=0;entryDx=0;entryDy=0;" parent="1" source="13" target="22" edge="1">
                    <mxGeometry relative="1" as="geometry">
                        <Array as="points">
                            <mxPoint x="400" y="459"/>
                            <mxPoint x="530" y="459"/>
                        </Array>
                    </mxGeometry>
                </mxCell>
                <mxCell id="13" value="&lt;font face=&quot;Times New Roman&quot;&gt;xz&lt;/font&gt;&lt;br&gt;&lt;div style=&quot;color: rgb(63, 63, 63); scrollbar-color: rgb(226, 226, 226) rgb(251, 251, 251);&quot;&gt;&lt;span style=&quot;color: rgb(63, 63, 63); font-family: &amp;quot;Times New Roman&amp;quot;;&quot;&gt;(&lt;/span&gt;&lt;span style=&quot;scrollbar-color: rgb(226, 226, 226) rgb(251, 251, 251); font-family: &amp;quot;Times New Roman&amp;quot;; color: rgb(63, 63, 63);&quot;&gt;2*D&lt;/span&gt;&lt;sub style=&quot;scrollbar-color: rgb(226, 226, 226) rgb(251, 251, 251); font-family: &amp;quot;Times New Roman&amp;quot;; color: rgb(63, 63, 63);&quot;&gt;inner&amp;nbsp;&lt;/sub&gt;&lt;span style=&quot;scrollbar-color: rgb(226, 226, 226) rgb(251, 251, 251); font-family: &amp;quot;Times New Roman&amp;quot;; color: rgb(63, 63, 63);&quot;&gt;,&amp;nbsp;(B, L)&lt;/span&gt;&lt;span style=&quot;color: rgb(63, 63, 63); font-family: &amp;quot;Times New Roman&amp;quot;;&quot;&gt;)&amp;nbsp; -&amp;gt;&amp;nbsp;&lt;/span&gt;&lt;/div&gt;&lt;div style=&quot;color: rgb(63, 63, 63); scrollbar-color: rgb(226, 226, 226) rgb(251, 251, 251);&quot;&gt;&lt;span style=&quot;color: rgb(63, 63, 63); font-family: &amp;quot;Times New Roman&amp;quot;;&quot;&gt;(B, 2*D&lt;sub&gt;inner&lt;/sub&gt;, L) = (2, 64, 64)&lt;/span&gt;&lt;/div&gt;" style="rounded=0;whiteSpace=wrap;html=1;" parent="1" vertex="1">
                    <mxGeometry x="320" y="369" width="160" height="50" as="geometry"/>
                </mxCell>
                <mxCell id="15" value="&lt;font face=&quot;Times New Roman&quot;&gt;reshape&lt;/font&gt;" style="text;html=1;align=center;verticalAlign=middle;whiteSpace=wrap;rounded=0;fillColor=#ffff88;strokeColor=#36393d;" parent="1" vertex="1">
                    <mxGeometry x="410" y="330" width="60" height="30" as="geometry"/>
                </mxCell>
                <mxCell id="17" value="&lt;font face=&quot;Times New Roman&quot;&gt;@&lt;/font&gt;" style="text;html=1;align=center;verticalAlign=middle;whiteSpace=wrap;rounded=0;fillColor=#ffff88;strokeColor=#36393d;" parent="1" vertex="1">
                    <mxGeometry x="410" y="220" width="60" height="30" as="geometry"/>
                </mxCell>
                <mxCell id="29" value="" style="edgeStyle=none;html=1;" parent="1" source="20" target="28" edge="1">
                    <mxGeometry relative="1" as="geometry"/>
                </mxCell>
                <mxCell id="20" value="&lt;font face=&quot;Times New Roman&quot;&gt;x&lt;/font&gt;&lt;div&gt;&lt;span style=&quot;color: rgb(63, 63, 63); font-family: &amp;quot;Times New Roman&amp;quot;;&quot;&gt;(B,&amp;nbsp; D&lt;/span&gt;&lt;sub style=&quot;color: rgb(63, 63, 63); scrollbar-color: rgb(226, 226, 226) rgb(251, 251, 251); font-family: &amp;quot;Times New Roman&amp;quot;;&quot;&gt;inner&lt;/sub&gt;&lt;span style=&quot;color: rgb(63, 63, 63); font-family: &amp;quot;Times New Roman&amp;quot;;&quot;&gt;, L) = (2, 32, 64)&lt;/span&gt;&lt;/div&gt;" style="rounded=0;whiteSpace=wrap;html=1;" parent="1" vertex="1">
                    <mxGeometry x="190" y="499" width="140" height="50" as="geometry"/>
                </mxCell>
                <mxCell id="22" value="&lt;font face=&quot;Times New Roman&quot;&gt;z&lt;/font&gt;&lt;br&gt;&lt;div&gt;&lt;span style=&quot;color: rgb(63, 63, 63); font-family: &amp;quot;Times New Roman&amp;quot;;&quot;&gt;(B,&amp;nbsp; D&lt;/span&gt;&lt;sub style=&quot;color: rgb(63, 63, 63); scrollbar-color: rgb(226, 226, 226) rgb(251, 251, 251); font-family: &amp;quot;Times New Roman&amp;quot;;&quot;&gt;inner&lt;/sub&gt;&lt;span style=&quot;color: rgb(63, 63, 63); font-family: &amp;quot;Times New Roman&amp;quot;;&quot;&gt;, L) = (2, 32, 64)&lt;/span&gt;&lt;/div&gt;" style="rounded=0;whiteSpace=wrap;html=1;" parent="1" vertex="1">
                    <mxGeometry x="460" y="499" width="140" height="50" as="geometry"/>
                </mxCell>
                <mxCell id="27" value="&lt;font face=&quot;Times New Roman&quot;&gt;split&lt;/font&gt;" style="text;html=1;align=center;verticalAlign=middle;whiteSpace=wrap;rounded=0;fillColor=#ffff88;strokeColor=#36393d;" parent="1" vertex="1">
                    <mxGeometry x="410" y="425" width="60" height="29" as="geometry"/>
                </mxCell>
                <mxCell id="32" value="" style="edgeStyle=none;html=1;" parent="1" source="28" target="31" edge="1">
                    <mxGeometry relative="1" as="geometry"/>
                </mxCell>
                <mxCell id="28" value="&lt;font face=&quot;Times New Roman&quot;&gt;conv1d_out&lt;/font&gt;&lt;br&gt;&lt;div&gt;&lt;span style=&quot;scrollbar-color: rgb(226, 226, 226) rgb(251, 251, 251); font-family: &amp;quot;Times New Roman&amp;quot;; color: rgb(63, 63, 63);&quot;&gt;(B,&amp;nbsp; D&lt;/span&gt;&lt;sub style=&quot;scrollbar-color: rgb(226, 226, 226) rgb(251, 251, 251); font-family: &amp;quot;Times New Roman&amp;quot;; color: rgb(63, 63, 63);&quot;&gt;inner&lt;/sub&gt;&lt;span style=&quot;scrollbar-color: rgb(226, 226, 226) rgb(251, 251, 251); font-family: &amp;quot;Times New Roman&amp;quot;; color: rgb(63, 63, 63);&quot;&gt;, L) = (2, 32, 64)&lt;/span&gt;&lt;/div&gt;" style="rounded=0;whiteSpace=wrap;html=1;" parent="1" vertex="1">
                    <mxGeometry x="190" y="600" width="140" height="50" as="geometry"/>
                </mxCell>
                <mxCell id="30" value="&lt;span style=&quot;color: rgb(51, 51, 51); font-size: 13px;&quot;&gt;&lt;font face=&quot;Times New Roman&quot;&gt;causal_conv1d_cuda&lt;/font&gt;&lt;/span&gt;" style="text;html=1;align=center;verticalAlign=middle;whiteSpace=wrap;rounded=0;fillColor=#ffff88;strokeColor=#36393d;" parent="1" vertex="1">
                    <mxGeometry x="140" y="560" width="120" height="30" as="geometry"/>
                </mxCell>
                <mxCell id="35" value="" style="edgeStyle=none;html=1;" parent="1" source="31" target="34" edge="1">
                    <mxGeometry relative="1" as="geometry"/>
                </mxCell>
                <mxCell id="31" value="&lt;div style=&quot;color: rgb(63, 63, 63); scrollbar-color: rgb(226, 226, 226) rgb(251, 251, 251);&quot;&gt;&lt;font style=&quot;color: rgb(63, 63, 63); scrollbar-color: rgb(226, 226, 226) rgb(251, 251, 251);&quot; face=&quot;Times New Roman&quot;&gt;&amp;nbsp;(128, 32)&lt;/font&gt;&lt;/div&gt;&lt;div style=&quot;color: rgb(63, 63, 63); scrollbar-color: rgb(226, 226, 226) rgb(251, 251, 251);&quot;&gt;&lt;span style=&quot;scrollbar-color: rgb(226, 226, 226) rgb(251, 251, 251); font-family: &amp;quot;Times New Roman&amp;quot;; color: rgb(63, 63, 63);&quot;&gt;&lt;span style=&quot;background-color: transparent; color: rgb(63, 63, 63); scrollbar-color: rgb(226, 226, 226) rgb(251, 251, 251);&quot;&gt;(B,&amp;nbsp; D&lt;/span&gt;&lt;sub style=&quot;background-color: transparent; color: rgb(63, 63, 63); scrollbar-color: rgb(226, 226, 226) rgb(251, 251, 251);&quot;&gt;inner&lt;/sub&gt;&lt;span style=&quot;background-color: transparent; color: rgb(63, 63, 63); scrollbar-color: rgb(226, 226, 226) rgb(251, 251, 251);&quot;&gt;, L)&lt;/span&gt;&amp;nbsp;-&amp;gt;&amp;nbsp;&lt;/span&gt;&lt;font style=&quot;color: rgb(63, 63, 63); scrollbar-color: rgb(226, 226, 226) rgb(251, 251, 251);&quot; face=&quot;Times New Roman&quot;&gt;&lt;/font&gt;&lt;span style=&quot;scrollbar-color: rgb(226, 226, 226) rgb(251, 251, 251); font-family: &amp;quot;Times New Roman&amp;quot;; background-color: transparent; color: rgb(63, 63, 63);&quot;&gt;((B, L), D&lt;sub&gt;inner&lt;/sub&gt;)&lt;/span&gt;&lt;/div&gt;" style="rounded=0;whiteSpace=wrap;html=1;" parent="1" vertex="1">
                    <mxGeometry x="170" y="700" width="180" height="50" as="geometry"/>
                </mxCell>
                <mxCell id="33" value="&lt;span style=&quot;color: rgb(51, 51, 51); font-size: 13px;&quot;&gt;&lt;font face=&quot;Times New Roman&quot;&gt;reshape&lt;/font&gt;&lt;/span&gt;" style="text;html=1;align=center;verticalAlign=middle;whiteSpace=wrap;rounded=0;fillColor=#ffff88;strokeColor=#36393d;" parent="1" vertex="1">
                    <mxGeometry x="180" y="660" width="80" height="30" as="geometry"/>
                </mxCell>
                <mxCell id="39" value="" style="edgeStyle=none;html=1;" parent="1" source="34" target="38" edge="1">
                    <mxGeometry relative="1" as="geometry"/>
                </mxCell>
                <mxCell id="43" style="edgeStyle=none;html=1;exitX=0.5;exitY=1;exitDx=0;exitDy=0;entryX=0.5;entryY=0;entryDx=0;entryDy=0;" parent="1" source="34" target="40" edge="1">
                    <mxGeometry relative="1" as="geometry">
                        <Array as="points">
                            <mxPoint x="260" y="880"/>
                            <mxPoint x="70" y="880"/>
                        </Array>
                    </mxGeometry>
                </mxCell>
                <mxCell id="44" style="edgeStyle=none;html=1;exitX=0.5;exitY=1;exitDx=0;exitDy=0;entryX=0.5;entryY=0;entryDx=0;entryDy=0;" parent="1" source="34" target="42" edge="1">
                    <mxGeometry relative="1" as="geometry">
                        <Array as="points">
                            <mxPoint x="260" y="880"/>
                            <mxPoint x="450" y="880"/>
                        </Array>
                    </mxGeometry>
                </mxCell>
                <mxCell id="34" value="&lt;div style=&quot;color: rgb(63, 63, 63); scrollbar-color: rgb(226, 226, 226) rgb(251, 251, 251);&quot;&gt;&lt;font style=&quot;color: rgb(63, 63, 63); scrollbar-color: rgb(226, 226, 226) rgb(251, 251, 251);&quot; face=&quot;Times New Roman&quot;&gt;&amp;nbsp;(128, 33)&lt;/font&gt;&lt;/div&gt;&lt;div style=&quot;color: rgb(63, 63, 63); scrollbar-color: rgb(226, 226, 226) rgb(251, 251, 251);&quot;&gt;&lt;span style=&quot;scrollbar-color: rgb(226, 226, 226) rgb(251, 251, 251); font-family: &amp;quot;Times New Roman&amp;quot;; color: rgb(63, 63, 63);&quot;&gt;&lt;span style=&quot;background-color: transparent; color: rgb(63, 63, 63); scrollbar-color: rgb(226, 226, 226) rgb(251, 251, 251);&quot;&gt;(B,&amp;nbsp; D&lt;/span&gt;&lt;sub style=&quot;background-color: transparent; color: rgb(63, 63, 63); scrollbar-color: rgb(226, 226, 226) rgb(251, 251, 251);&quot;&gt;inner&lt;/sub&gt;&lt;span style=&quot;background-color: transparent; color: rgb(63, 63, 63); scrollbar-color: rgb(226, 226, 226) rgb(251, 251, 251);&quot;&gt;, L)&lt;/span&gt;&amp;nbsp;-&amp;gt;&amp;nbsp;&lt;/span&gt;&lt;font style=&quot;color: rgb(63, 63, 63); scrollbar-color: rgb(226, 226, 226) rgb(251, 251, 251);&quot; face=&quot;Times New Roman&quot;&gt;&lt;/font&gt;&lt;span style=&quot;scrollbar-color: rgb(226, 226, 226) rgb(251, 251, 251); font-family: &amp;quot;Times New Roman&amp;quot;; background-color: transparent; color: rgb(63, 63, 63);&quot;&gt;((B, L), 2D&lt;font&gt;&lt;sub&gt;state&lt;/sub&gt;+&lt;/font&gt;&lt;span style=&quot;scrollbar-color: rgb(226, 226, 226) rgb(251, 251, 251); font-size: 14px; text-align: left; color: rgb(63, 63, 63);&quot;&gt;D&lt;/span&gt;&lt;sub style=&quot;scrollbar-color: rgb(226, 226, 226) rgb(251, 251, 251); text-align: left; color: rgb(63, 63, 63);&quot;&gt;t&lt;/sub&gt;)&lt;/span&gt;&lt;/div&gt;" style="rounded=0;whiteSpace=wrap;html=1;" parent="1" vertex="1">
                    <mxGeometry x="160" y="800" width="200" height="50" as="geometry"/>
                </mxCell>
                <mxCell id="36" value="&lt;span style=&quot;color: rgb(51, 51, 51); font-size: 13px;&quot;&gt;&lt;font face=&quot;Times New Roman&quot;&gt;x_proj&lt;/font&gt;&lt;/span&gt;" style="text;html=1;align=center;verticalAlign=middle;whiteSpace=wrap;rounded=0;fillColor=#ffff88;strokeColor=#36393d;" parent="1" vertex="1">
                    <mxGeometry x="180" y="760" width="80" height="30" as="geometry"/>
                </mxCell>
                <mxCell id="57" style="edgeStyle=none;html=1;exitX=0.5;exitY=1;exitDx=0;exitDy=0;entryX=0.5;entryY=0;entryDx=0;entryDy=0;" parent="1" source="38" target="55" edge="1">
                    <mxGeometry relative="1" as="geometry"/>
                </mxCell>
                <mxCell id="38" value="&lt;div&gt;&lt;span style=&quot;color: rgb(63, 63, 63); font-family: &amp;quot;Times New Roman&amp;quot;;&quot;&gt;&lt;span style=&quot;background-color: transparent; scrollbar-color: rgb(226, 226, 226) rgb(251, 251, 251); color: rgb(63, 63, 63);&quot;&gt;B&lt;/span&gt;&lt;/span&gt;&lt;/div&gt;&lt;div&gt;&lt;span style=&quot;color: rgb(63, 63, 63); font-family: &amp;quot;Times New Roman&amp;quot;;&quot;&gt;&lt;span style=&quot;background-color: transparent; scrollbar-color: rgb(226, 226, 226) rgb(251, 251, 251); color: rgb(63, 63, 63);&quot;&gt;&amp;nbsp;&lt;/span&gt;&lt;font style=&quot;background-color: transparent; scrollbar-color: rgb(226, 226, 226) rgb(251, 251, 251); color: rgb(63, 63, 63);&quot; face=&quot;Times New Roman&quot;&gt;&lt;/font&gt;&lt;span style=&quot;background-color: transparent; scrollbar-color: rgb(226, 226, 226) rgb(251, 251, 251); color: rgb(63, 63, 63);&quot;&gt;((B, L), D&lt;font style=&quot;color: rgb(63, 63, 63); scrollbar-color: rgb(226, 226, 226) rgb(251, 251, 251);&quot;&gt;&lt;sub style=&quot;color: rgb(63, 63, 63); scrollbar-color: rgb(226, 226, 226) rgb(251, 251, 251);&quot;&gt;state&lt;/sub&gt;&lt;/font&gt;)&lt;/span&gt;&amp;nbsp;= (128, 16)&lt;/span&gt;&lt;/div&gt;" style="rounded=0;whiteSpace=wrap;html=1;" parent="1" vertex="1">
                    <mxGeometry x="190" y="910" width="140" height="50" as="geometry"/>
                </mxCell>
                <mxCell id="46" value="" style="edgeStyle=none;html=1;" parent="1" source="40" target="45" edge="1">
                    <mxGeometry relative="1" as="geometry"/>
                </mxCell>
                <mxCell id="40" value="&lt;span style=&quot;background-color: transparent; font-family: &amp;quot;Times New Roman&amp;quot;; color: rgb(63, 63, 63);&quot;&gt;&lt;span style=&quot;scrollbar-color: rgb(226, 226, 226) rgb(251, 251, 251); color: rgb(63, 63, 63);&quot;&gt;dt&amp;nbsp;&lt;/span&gt;&lt;/span&gt;&lt;div&gt;&lt;span style=&quot;background-color: transparent; font-family: &amp;quot;Times New Roman&amp;quot;; color: rgb(63, 63, 63);&quot;&gt;&lt;font style=&quot;scrollbar-color: rgb(226, 226, 226) rgb(251, 251, 251); color: rgb(63, 63, 63);&quot; face=&quot;Times New Roman&quot;&gt;&lt;/font&gt;&lt;span style=&quot;scrollbar-color: rgb(226, 226, 226) rgb(251, 251, 251); background-color: transparent; color: rgb(63, 63, 63);&quot;&gt;((B, L),&amp;nbsp;&lt;span style=&quot;scrollbar-color: rgb(226, 226, 226) rgb(251, 251, 251); font-size: 14px; text-align: left; color: rgb(63, 63, 63);&quot;&gt;D&lt;/span&gt;&lt;sub style=&quot;scrollbar-color: rgb(226, 226, 226) rgb(251, 251, 251); text-align: left; color: rgb(63, 63, 63);&quot;&gt;t&lt;/sub&gt;)&lt;/span&gt;= (128, 1)&lt;/span&gt;&lt;/div&gt;" style="rounded=0;whiteSpace=wrap;html=1;" parent="1" vertex="1">
                    <mxGeometry y="910" width="140" height="50" as="geometry"/>
                </mxCell>
                <mxCell id="60" style="edgeStyle=none;html=1;exitX=0.5;exitY=1;exitDx=0;exitDy=0;entryX=0.5;entryY=0;entryDx=0;entryDy=0;" parent="1" source="42" target="59" edge="1">
                    <mxGeometry relative="1" as="geometry"/>
                </mxCell>
                <mxCell id="42" value="&lt;span style=&quot;scrollbar-color: rgb(226, 226, 226) rgb(251, 251, 251); font-family: &amp;quot;Times New Roman&amp;quot;; background-color: transparent; color: rgb(63, 63, 63);&quot;&gt;C&amp;nbsp;&lt;/span&gt;&lt;div&gt;&lt;font style=&quot;scrollbar-color: rgb(226, 226, 226) rgb(251, 251, 251); font-family: &amp;quot;Times New Roman&amp;quot;; background-color: transparent; color: rgb(63, 63, 63);&quot; face=&quot;Times New Roman&quot;&gt;&lt;/font&gt;&lt;span style=&quot;scrollbar-color: rgb(226, 226, 226) rgb(251, 251, 251); font-family: &amp;quot;Times New Roman&amp;quot;; background-color: transparent; color: rgb(63, 63, 63);&quot;&gt;((B, L), D&lt;font style=&quot;scrollbar-color: rgb(226, 226, 226) rgb(251, 251, 251); color: rgb(63, 63, 63);&quot;&gt;&lt;sub style=&quot;scrollbar-color: rgb(226, 226, 226) rgb(251, 251, 251); color: rgb(63, 63, 63);&quot;&gt;state&lt;/sub&gt;&lt;/font&gt;)&lt;/span&gt;&lt;span style=&quot;color: rgb(63, 63, 63); font-family: &amp;quot;Times New Roman&amp;quot;;&quot;&gt;&amp;nbsp;= (128, 16)&lt;/span&gt;&lt;/div&gt;" style="rounded=0;whiteSpace=wrap;html=1;" parent="1" vertex="1">
                    <mxGeometry x="380" y="910" width="140" height="50" as="geometry"/>
                </mxCell>
                <mxCell id="50" value="" style="edgeStyle=none;html=1;" parent="1" source="45" target="49" edge="1">
                    <mxGeometry relative="1" as="geometry"/>
                </mxCell>
                <mxCell id="45" value="&lt;span style=&quot;background-color: transparent; font-family: &amp;quot;Times New Roman&amp;quot;; color: rgb(63, 63, 63);&quot;&gt;&lt;span style=&quot;scrollbar-color: rgb(226, 226, 226) rgb(251, 251, 251); color: rgb(63, 63, 63);&quot;&gt;dt&amp;nbsp;&lt;/span&gt;&lt;/span&gt;&lt;div&gt;&lt;span style=&quot;background-color: transparent; font-family: &amp;quot;Times New Roman&amp;quot;; color: rgb(63, 63, 63);&quot;&gt;&lt;font style=&quot;scrollbar-color: rgb(226, 226, 226) rgb(251, 251, 251); color: rgb(63, 63, 63);&quot; face=&quot;Times New Roman&quot;&gt;&lt;/font&gt;&lt;span style=&quot;scrollbar-color: rgb(226, 226, 226) rgb(251, 251, 251); background-color: transparent; color: rgb(63, 63, 63);&quot;&gt;(&lt;span style=&quot;scrollbar-color: rgb(226, 226, 226) rgb(251, 251, 251); font-size: 14px; text-align: left; color: rgb(63, 63, 63);&quot;&gt;D&lt;/span&gt;&lt;sub style=&quot;scrollbar-color: rgb(226, 226, 226) rgb(251, 251, 251); text-align: left; color: rgb(63, 63, 63);&quot;&gt;t&lt;/sub&gt;, (B, L))&lt;/span&gt;= (1, 128)&lt;/span&gt;&lt;/div&gt;" style="rounded=0;whiteSpace=wrap;html=1;" parent="1" vertex="1">
                    <mxGeometry y="1010" width="140" height="50" as="geometry"/>
                </mxCell>
                <mxCell id="47" value="&lt;span style=&quot;color: rgb(51, 51, 51); font-size: 13px;&quot;&gt;&lt;font face=&quot;Times New Roman&quot;&gt;transpose&lt;/font&gt;&lt;/span&gt;" style="text;html=1;align=center;verticalAlign=middle;whiteSpace=wrap;rounded=0;fillColor=#ffff88;strokeColor=#36393d;" parent="1" vertex="1">
                    <mxGeometry x="-20" y="970" width="80" height="30" as="geometry"/>
                </mxCell>
                <mxCell id="51" style="edgeStyle=none;html=1;exitX=1;exitY=0.5;exitDx=0;exitDy=0;entryX=0.5;entryY=0;entryDx=0;entryDy=0;" parent="1" source="48" target="49" edge="1">
                    <mxGeometry relative="1" as="geometry">
                        <mxPoint x="70" y="1117" as="targetPoint"/>
                        <Array as="points">
                            <mxPoint x="70" y="1082"/>
                        </Array>
                    </mxGeometry>
                </mxCell>
                <mxCell id="48" value="&lt;font face=&quot;Times New Roman&quot;&gt;dt_proj_weight&lt;/font&gt;&lt;div&gt;&lt;font face=&quot;Times New Roman&quot;&gt;(D&lt;sub&gt;inner&amp;nbsp;&lt;/sub&gt;,&amp;nbsp;&lt;/font&gt;&lt;span style=&quot;scrollbar-color: rgb(226, 226, 226) rgb(251, 251, 251); font-family: &amp;quot;Times New Roman&amp;quot;; font-size: 14px; text-align: left; color: rgb(63, 63, 63);&quot;&gt;D&lt;/span&gt;&lt;sub style=&quot;scrollbar-color: rgb(226, 226, 226) rgb(251, 251, 251); font-family: &amp;quot;Times New Roman&amp;quot;; text-align: left; color: rgb(63, 63, 63);&quot;&gt;t&lt;/sub&gt;&lt;font face=&quot;Times New Roman&quot;&gt;) = (32, 1)&lt;/font&gt;&lt;/div&gt;" style="rounded=0;whiteSpace=wrap;html=1;" parent="1" vertex="1">
                    <mxGeometry x="-150" y="1057" width="120" height="50" as="geometry"/>
                </mxCell>
                <mxCell id="53" value="" style="edgeStyle=none;html=1;" parent="1" source="49" target="52" edge="1">
                    <mxGeometry relative="1" as="geometry"/>
                </mxCell>
                <mxCell id="49" value="&lt;span style=&quot;background-color: transparent; font-family: &amp;quot;Times New Roman&amp;quot;; color: rgb(63, 63, 63);&quot;&gt;&lt;span style=&quot;scrollbar-color: rgb(226, 226, 226) rgb(251, 251, 251); color: rgb(63, 63, 63);&quot;&gt;dt&amp;nbsp;&lt;/span&gt;&lt;/span&gt;&lt;div&gt;&lt;span style=&quot;background-color: transparent; font-family: &amp;quot;Times New Roman&amp;quot;; color: rgb(63, 63, 63);&quot;&gt;&lt;font style=&quot;scrollbar-color: rgb(226, 226, 226) rgb(251, 251, 251); color: rgb(63, 63, 63);&quot; face=&quot;Times New Roman&quot;&gt;&lt;/font&gt;&lt;span style=&quot;scrollbar-color: rgb(226, 226, 226) rgb(251, 251, 251); background-color: transparent; color: rgb(63, 63, 63);&quot;&gt;(&lt;span style=&quot;color: rgb(63, 63, 63);&quot;&gt;D&lt;/span&gt;&lt;sub style=&quot;color: rgb(63, 63, 63); scrollbar-color: rgb(226, 226, 226) rgb(251, 251, 251);&quot;&gt;inner&amp;nbsp;&lt;/sub&gt;, (B, L))&lt;/span&gt;= (32, 128)&lt;/span&gt;&lt;/div&gt;" style="rounded=0;whiteSpace=wrap;html=1;" parent="1" vertex="1">
                    <mxGeometry y="1117" width="140" height="50" as="geometry"/>
                </mxCell>
                <mxCell id="52" value="&lt;span style=&quot;background-color: transparent; font-family: &amp;quot;Times New Roman&amp;quot;; color: rgb(63, 63, 63);&quot;&gt;&lt;span style=&quot;scrollbar-color: rgb(226, 226, 226) rgb(251, 251, 251); color: rgb(63, 63, 63);&quot;&gt;dt&amp;nbsp;&lt;/span&gt;&lt;/span&gt;&lt;div&gt;&lt;font face=&quot;Times New Roman&quot;&gt;(2, 32, 64)&lt;br&gt;&lt;/font&gt;&lt;div&gt;&lt;span style=&quot;background-color: transparent; font-family: &amp;quot;Times New Roman&amp;quot;; color: rgb(63, 63, 63);&quot;&gt;&lt;font style=&quot;scrollbar-color: rgb(226, 226, 226) rgb(251, 251, 251); color: rgb(63, 63, 63);&quot; face=&quot;Times New Roman&quot;&gt;&lt;/font&gt;&lt;span style=&quot;scrollbar-color: rgb(226, 226, 226) rgb(251, 251, 251); background-color: transparent; color: rgb(63, 63, 63);&quot;&gt;(&lt;span style=&quot;color: rgb(63, 63, 63);&quot;&gt;D&lt;/span&gt;&lt;sub style=&quot;color: rgb(63, 63, 63); scrollbar-color: rgb(226, 226, 226) rgb(251, 251, 251);&quot;&gt;inner&amp;nbsp;&lt;/sub&gt;, (B, L)-&amp;gt;&lt;/span&gt;&amp;nbsp;(B,&amp;nbsp;&lt;/span&gt;&lt;span style=&quot;background-color: transparent; scrollbar-color: rgb(226, 226, 226) rgb(251, 251, 251); font-family: &amp;quot;Times New Roman&amp;quot;; color: rgb(63, 63, 63);&quot;&gt;D&lt;/span&gt;&lt;sub style=&quot;background-color: transparent; scrollbar-color: rgb(226, 226, 226) rgb(251, 251, 251); font-family: &amp;quot;Times New Roman&amp;quot;; color: rgb(63, 63, 63);&quot;&gt;inner&amp;nbsp;&lt;/sub&gt;&lt;span style=&quot;background-color: transparent; font-family: &amp;quot;Times New Roman&amp;quot;;&quot;&gt;, L)&lt;/span&gt;&lt;/div&gt;&lt;/div&gt;" style="rounded=0;whiteSpace=wrap;html=1;" parent="1" vertex="1">
                    <mxGeometry x="-10" y="1230" width="160" height="50" as="geometry"/>
                </mxCell>
                <mxCell id="54" value="&lt;span style=&quot;color: rgb(51, 51, 51); font-size: 13px;&quot;&gt;&lt;font face=&quot;Times New Roman&quot;&gt;reshape&lt;/font&gt;&lt;/span&gt;" style="text;html=1;align=center;verticalAlign=middle;whiteSpace=wrap;rounded=0;fillColor=#ffff88;strokeColor=#36393d;" parent="1" vertex="1">
                    <mxGeometry x="-20" y="1180" width="80" height="30" as="geometry"/>
                </mxCell>
                <mxCell id="55" value="&lt;span style=&quot;background-color: transparent; font-family: &amp;quot;Times New Roman&amp;quot;; color: rgb(63, 63, 63);&quot;&gt;&lt;span style=&quot;scrollbar-color: rgb(226, 226, 226) rgb(251, 251, 251); color: rgb(63, 63, 63);&quot;&gt;B&lt;/span&gt;&lt;/span&gt;&lt;div&gt;&lt;font face=&quot;Times New Roman&quot;&gt;(2, 16, 64) or&amp;nbsp;&lt;/font&gt;&lt;span style=&quot;color: rgb(63, 63, 63); font-family: &amp;quot;Times New Roman&amp;quot;;&quot;&gt;(2, 1, 16, 64)&amp;nbsp;&lt;/span&gt;&lt;font face=&quot;Times New Roman&quot;&gt;&lt;br&gt;&lt;/font&gt;&lt;div&gt;&lt;span style=&quot;background-color: transparent; font-family: &amp;quot;Times New Roman&amp;quot;; color: rgb(63, 63, 63);&quot;&gt;&lt;font style=&quot;scrollbar-color: rgb(226, 226, 226) rgb(251, 251, 251); color: rgb(63, 63, 63);&quot; face=&quot;Times New Roman&quot;&gt;&lt;/font&gt;&lt;span style=&quot;scrollbar-color: rgb(226, 226, 226) rgb(251, 251, 251); background-color: transparent; color: rgb(63, 63, 63);&quot;&gt;(&lt;span style=&quot;color: rgb(63, 63, 63);&quot;&gt;(B, L), D&lt;/span&gt;&lt;font style=&quot;scrollbar-color: rgb(226, 226, 226) rgb(251, 251, 251); color: rgb(63, 63, 63);&quot;&gt;&lt;sub style=&quot;scrollbar-color: rgb(226, 226, 226) rgb(251, 251, 251); color: rgb(63, 63, 63);&quot;&gt;state&lt;/sub&gt;&lt;/font&gt;)-&amp;gt;&lt;/span&gt;&amp;nbsp;(&lt;/span&gt;&lt;span style=&quot;color: rgb(63, 63, 63); font-family: &amp;quot;Times New Roman&amp;quot;;&quot;&gt;B,&amp;nbsp;&lt;/span&gt;&lt;span style=&quot;color: rgb(63, 63, 63); background-color: transparent; scrollbar-color: rgb(226, 226, 226) rgb(251, 251, 251); font-family: &amp;quot;Times New Roman&amp;quot;;&quot;&gt;D&lt;/span&gt;&lt;font style=&quot;color: rgb(63, 63, 63); background-color: transparent; scrollbar-color: rgb(226, 226, 226) rgb(251, 251, 251); font-family: &amp;quot;Times New Roman&amp;quot;;&quot;&gt;&lt;sub style=&quot;scrollbar-color: rgb(226, 226, 226) rgb(251, 251, 251); color: rgb(63, 63, 63);&quot;&gt;state&lt;/sub&gt;&lt;/font&gt;&lt;span style=&quot;background-color: transparent; font-family: &amp;quot;Times New Roman&amp;quot;; color: rgb(63, 63, 63);&quot;&gt;&amp;nbsp;, L&lt;/span&gt;&lt;span style=&quot;color: rgb(63, 63, 63); background-color: transparent; font-family: &amp;quot;Times New Roman&amp;quot;;&quot;&gt;)&lt;/span&gt;&lt;/div&gt;&lt;/div&gt;" style="rounded=0;whiteSpace=wrap;html=1;" parent="1" vertex="1">
                    <mxGeometry x="180" y="1230" width="160" height="50" as="geometry"/>
                </mxCell>
                <mxCell id="58" value="&lt;span style=&quot;color: rgb(51, 51, 51); font-size: 13px;&quot;&gt;&lt;font face=&quot;Times New Roman&quot;&gt;reshape&lt;/font&gt;&lt;/span&gt;" style="text;html=1;align=center;verticalAlign=middle;whiteSpace=wrap;rounded=0;fillColor=#ffff88;strokeColor=#36393d;" parent="1" vertex="1">
                    <mxGeometry x="270" y="1060" width="80" height="30" as="geometry"/>
                </mxCell>
                <mxCell id="59" value="&lt;div&gt;&lt;font face=&quot;Times New Roman&quot;&gt;C&lt;/font&gt;&lt;/div&gt;&lt;div&gt;&lt;font style=&quot;color: rgb(63, 63, 63); scrollbar-color: rgb(226, 226, 226) rgb(251, 251, 251);&quot; face=&quot;Times New Roman&quot;&gt;(2, 16, 64) or&amp;nbsp;&lt;/font&gt;&lt;span style=&quot;color: rgb(63, 63, 63); scrollbar-color: rgb(226, 226, 226) rgb(251, 251, 251); font-family: &amp;quot;Times New Roman&amp;quot;;&quot;&gt;(2, 1, 16, 64)&amp;nbsp;&lt;/span&gt;&lt;font face=&quot;Times New Roman&quot;&gt;&lt;br&gt;&lt;/font&gt;&lt;div&gt;&lt;span style=&quot;background-color: transparent; font-family: &amp;quot;Times New Roman&amp;quot;; color: rgb(63, 63, 63);&quot;&gt;&lt;font style=&quot;scrollbar-color: rgb(226, 226, 226) rgb(251, 251, 251); color: rgb(63, 63, 63);&quot; face=&quot;Times New Roman&quot;&gt;&lt;/font&gt;&lt;span style=&quot;scrollbar-color: rgb(226, 226, 226) rgb(251, 251, 251); background-color: transparent; color: rgb(63, 63, 63);&quot;&gt;(&lt;span style=&quot;color: rgb(63, 63, 63);&quot;&gt;(B, L), D&lt;/span&gt;&lt;font style=&quot;scrollbar-color: rgb(226, 226, 226) rgb(251, 251, 251); color: rgb(63, 63, 63);&quot;&gt;&lt;sub style=&quot;scrollbar-color: rgb(226, 226, 226) rgb(251, 251, 251); color: rgb(63, 63, 63);&quot;&gt;state&lt;/sub&gt;&lt;/font&gt;)-&amp;gt;&lt;/span&gt;&amp;nbsp;(&lt;/span&gt;&lt;span style=&quot;color: rgb(63, 63, 63); font-family: &amp;quot;Times New Roman&amp;quot;;&quot;&gt;B,&amp;nbsp;&lt;/span&gt;&lt;span style=&quot;color: rgb(63, 63, 63); background-color: transparent; scrollbar-color: rgb(226, 226, 226) rgb(251, 251, 251); font-family: &amp;quot;Times New Roman&amp;quot;;&quot;&gt;D&lt;/span&gt;&lt;font style=&quot;color: rgb(63, 63, 63); background-color: transparent; scrollbar-color: rgb(226, 226, 226) rgb(251, 251, 251); font-family: &amp;quot;Times New Roman&amp;quot;;&quot;&gt;&lt;sub style=&quot;scrollbar-color: rgb(226, 226, 226) rgb(251, 251, 251); color: rgb(63, 63, 63);&quot;&gt;state&lt;/sub&gt;&lt;/font&gt;&lt;span style=&quot;background-color: transparent; font-family: &amp;quot;Times New Roman&amp;quot;; color: rgb(63, 63, 63);&quot;&gt;&amp;nbsp;, L&lt;/span&gt;&lt;span style=&quot;color: rgb(63, 63, 63); background-color: transparent; font-family: &amp;quot;Times New Roman&amp;quot;;&quot;&gt;)&lt;/span&gt;&lt;/div&gt;&lt;/div&gt;" style="rounded=0;whiteSpace=wrap;html=1;" parent="1" vertex="1">
                    <mxGeometry x="370" y="1230" width="160" height="50" as="geometry"/>
                </mxCell>
                <mxCell id="61" value="&lt;div style=&quot;color: rgb(63, 63, 63); scrollbar-color: rgb(226, 226, 226) rgb(251, 251, 251); text-align: left;&quot;&gt;&lt;span style=&quot;scrollbar-color: rgb(226, 226, 226) rgb(251, 251, 251); font-family: &amp;quot;Times New Roman&amp;quot;; background-color: transparent; color: rgb(63, 63, 63);&quot;&gt;&lt;font style=&quot;font-size: 14px;&quot;&gt;B = 2&lt;/font&gt;&lt;/span&gt;&lt;/div&gt;&lt;div style=&quot;color: rgb(63, 63, 63); scrollbar-color: rgb(226, 226, 226) rgb(251, 251, 251); text-align: left;&quot;&gt;&lt;font style=&quot;color: rgb(63, 63, 63); scrollbar-color: rgb(226, 226, 226) rgb(251, 251, 251); font-size: 14px;&quot; face=&quot;Times New Roman&quot;&gt;L = 64&lt;/font&gt;&lt;/div&gt;&lt;div style=&quot;color: rgb(63, 63, 63); scrollbar-color: rgb(226, 226, 226) rgb(251, 251, 251); text-align: left;&quot;&gt;&lt;font style=&quot;color: rgb(63, 63, 63); scrollbar-color: rgb(226, 226, 226) rgb(251, 251, 251); font-size: 14px;&quot; face=&quot;Times New Roman&quot;&gt;D = 16&lt;/font&gt;&lt;/div&gt;&lt;div style=&quot;color: rgb(63, 63, 63); scrollbar-color: rgb(226, 226, 226) rgb(251, 251, 251); text-align: left;&quot;&gt;&lt;font style=&quot;color: rgb(63, 63, 63); scrollbar-color: rgb(226, 226, 226) rgb(251, 251, 251); font-size: 14px;&quot; face=&quot;Times New Roman&quot;&gt;expand = 2&lt;/font&gt;&lt;/div&gt;&lt;div style=&quot;color: rgb(63, 63, 63); scrollbar-color: rgb(226, 226, 226) rgb(251, 251, 251); text-align: left;&quot;&gt;&lt;font style=&quot;color: rgb(63, 63, 63); scrollbar-color: rgb(226, 226, 226) rgb(251, 251, 251); font-size: 14px;&quot; face=&quot;Times New Roman&quot;&gt;D&lt;sub style=&quot;color: rgb(63, 63, 63); scrollbar-color: rgb(226, 226, 226) rgb(251, 251, 251);&quot;&gt;inner&lt;/sub&gt;&amp;nbsp;= expand * D = 32&lt;/font&gt;&lt;/div&gt;&lt;div style=&quot;color: rgb(63, 63, 63); scrollbar-color: rgb(226, 226, 226) rgb(251, 251, 251); text-align: left;&quot;&gt;&lt;font style=&quot;color: rgb(63, 63, 63); scrollbar-color: rgb(226, 226, 226) rgb(251, 251, 251); font-size: 14px;&quot; face=&quot;Times New Roman&quot;&gt;D&lt;sub style=&quot;color: rgb(63, 63, 63); scrollbar-color: rgb(226, 226, 226) rgb(251, 251, 251);&quot;&gt;state&lt;/sub&gt;&amp;nbsp;= 16&lt;/font&gt;&lt;/div&gt;&lt;div style=&quot;color: rgb(63, 63, 63); scrollbar-color: rgb(226, 226, 226) rgb(251, 251, 251); text-align: left;&quot;&gt;&lt;font style=&quot;color: rgb(63, 63, 63); scrollbar-color: rgb(226, 226, 226) rgb(251, 251, 251); font-size: 14px;&quot; face=&quot;Times New Roman&quot;&gt;&lt;span style=&quot;color: rgb(63, 63, 63);&quot;&gt;D&lt;/span&gt;&lt;sub style=&quot;scrollbar-color: rgb(226, 226, 226) rgb(251, 251, 251); color: rgb(63, 63, 63);&quot;&gt;t&lt;/sub&gt;&lt;span style=&quot;color: rgb(63, 63, 63);&quot;&gt;&amp;nbsp;= ceil(D/16)&lt;/span&gt;&lt;/font&gt;&lt;/div&gt;" style="shape=note;whiteSpace=wrap;html=1;backgroundOutline=1;fontColor=#000000;darkOpacity=0.05;fillColor=#FFF9B2;strokeColor=none;fillStyle=solid;direction=west;gradientDirection=north;gradientColor=#FFF2A1;shadow=1;size=20;pointerEvents=1;" parent="1" vertex="1">
                    <mxGeometry x="540" y="55" width="160" height="160" as="geometry"/>
                </mxCell>
                <mxCell id="62" value="&lt;font face=&quot;Times New Roman&quot;&gt;A&lt;/font&gt;&lt;br&gt;&lt;div&gt;&lt;font face=&quot;Times New Roman&quot;&gt;(32, 16)&lt;br&gt;&lt;/font&gt;&lt;div&gt;&lt;span style=&quot;background-color: transparent; font-family: &amp;quot;Times New Roman&amp;quot;; color: rgb(63, 63, 63);&quot;&gt;&lt;font style=&quot;scrollbar-color: rgb(226, 226, 226) rgb(251, 251, 251); color: rgb(63, 63, 63);&quot; face=&quot;Times New Roman&quot;&gt;&lt;/font&gt;&lt;span style=&quot;scrollbar-color: rgb(226, 226, 226) rgb(251, 251, 251); background-color: transparent; color: rgb(63, 63, 63);&quot;&gt;(&lt;span style=&quot;color: rgb(63, 63, 63);&quot;&gt;D&lt;/span&gt;&lt;sub style=&quot;color: rgb(63, 63, 63); scrollbar-color: rgb(226, 226, 226) rgb(251, 251, 251);&quot;&gt;inner&amp;nbsp;&lt;/sub&gt;,&amp;nbsp;&lt;/span&gt;&lt;/span&gt;&lt;span style=&quot;scrollbar-color: rgb(226, 226, 226) rgb(251, 251, 251); font-family: &amp;quot;Times New Roman&amp;quot;; color: rgb(63, 63, 63);&quot;&gt;&amp;nbsp;D&lt;/span&gt;&lt;font style=&quot;scrollbar-color: rgb(226, 226, 226) rgb(251, 251, 251); font-family: &amp;quot;Times New Roman&amp;quot;; color: rgb(63, 63, 63);&quot;&gt;&lt;sub style=&quot;scrollbar-color: rgb(226, 226, 226) rgb(251, 251, 251); color: rgb(63, 63, 63);&quot;&gt;state&lt;/sub&gt;&lt;/font&gt;&lt;span style=&quot;background-color: transparent; font-family: &amp;quot;Times New Roman&amp;quot;;&quot;&gt;)&lt;/span&gt;&lt;/div&gt;&lt;/div&gt;" style="rounded=0;whiteSpace=wrap;html=1;" vertex="1" parent="1">
                    <mxGeometry x="-180" y="1230" width="120" height="50" as="geometry"/>
                </mxCell>
            </root>
        </mxGraphModel>
    </diagram>
</mxfile>